<svg xmlns="http://www.w3.org/2000/svg" viewBox="0 0 436.92 327.28"><defs><style>.cls-1{fill:#0080ff;}</style></defs><title>Asset 7</title><g id="Layer_2" data-name="Layer 2"><g id="Layer_1-2" data-name="Layer 1"><path class="cls-1" d="M46.83,280.27h66.35c.1-2,.26-3.92.26-5.8q0-36.06,0-72.13a26.06,26.06,0,0,1,.42-5.8c.92-4,3.7-6,7.79-5.86s6.6,2.49,7.19,6.58a38.17,38.17,0,0,1,.18,5.35q0,36.06,0,72.13v5.47h66.52V156.47c-2.37,0-4.59,0-6.81,0-6.63-.09-10.23-2.82-10.29-7.79s3.5-7.79,10.13-7.79q44.85,0,89.69,0h86.76c8.73,0,11.09,2.31,11.09,10.88q0,66.77,0,133.53c0,8.2-2.61,10.78-10.84,10.78H42.14c-8.34,0-10.9-2.5-10.91-10.61q0-46.06,0-92.11a19.36,19.36,0,0,1,.1-3.41c.77-4.19,3.22-6.74,7.59-6.81s6.93,2.43,7.76,6.6a25.37,25.37,0,0,1,.14,4.86q0,40,0,79.93ZM294.1,156.73V280.15h66.11V156.73ZM277.71,280.29V156.83H211.87V280.29Z"></path><path class="cls-1" d="M407.34,162.89c3,.19,5.59.29,8.15.51,11.76,1,21.07,10.34,21.22,22.14q.42,32.9,0,65.78c-.16,12.05-9.91,21.43-22.24,22.29-2.09.14-4.2,0-7.12,0,0,4.73.08,9.2,0,13.67-.44,21.2-14.21,36.81-34.93,39.63a19.74,19.74,0,0,1-4.85.19,7.5,7.5,0,0,1-6.92-8c.23-4.36,2.67-6.8,7-7.41,17.38-2.48,24.15-10.33,24.15-28q0-66.27,0-132.54c0-10-3.3-18.44-12.55-23-4.16-2-9.34-2.79-14.07-2.8-53.77-.19-107.54-.12-161.31-.15a26.61,26.61,0,0,1-6.75-.58c-3.79-1-5.53-3.9-5.32-7.73a7,7,0,0,1,6.22-7,31.65,31.65,0,0,1,5.34-.23c53.93,0,107.87.41,161.8-.2,23.69-.27,43.19,17,42.23,42.48C407.23,155.51,407.34,159.06,407.34,162.89Zm.43,16.5v78.49c11,.7,13.45-1.62,13.46-12.17q0-27.78,0-55.54C421.22,180.46,417.63,177.56,407.77,179.39Z"></path><path class="cls-1" d="M89.55,179.33C40.46,179.39.08,139.16,0,90.15,0,40.61,40.18,0,89.17,0A89.84,89.84,0,0,1,179.4,90C179.45,139.28,139.21,179.27,89.55,179.33Zm.3-15.63a73.94,73.94,0,0,0,74-74.11c0-40.91-33.61-74.22-74.69-74-40.41.21-73.65,33.8-73.48,74.26A74,74,0,0,0,89.85,163.7Z"></path><path class="cls-1" d="M186.24,327.27q-72.61,0-145.23,0c-21.3,0-37-13.05-40.49-33.35a46.82,46.82,0,0,1-.47-7.76q0-57.75,0-115.48a23,23,0,0,1,.1-3.9c.74-4.22,3.34-6.78,7.6-6.84s7,2.45,7.75,6.65a26.2,26.2,0,0,1,.15,4.86q0,57,0,114c0,16.8,9.43,26.21,26.3,26.22H332.87c8.34,0,12.15,2.53,12,7.94-.17,5.19-4,7.66-11.91,7.66Z"></path><path class="cls-1" d="M97.53,81.86c8.84,0,17.09,0,25.34,0a19,19,0,0,1,5.29.51c3.92,1.17,5.87,4,5.46,8.1s-2.88,6.76-7,6.83q-18.75.32-37.5,0C84.59,97.24,82,94.13,82,89.65Q81.81,64.81,82,40a7.65,7.65,0,0,1,7.62-7.87c4.37-.06,7.8,3.26,7.85,8.16.14,11.69,0,23.38.06,35.07Z"></path></g></g></svg>