<svg xmlns="http://www.w3.org/2000/svg" viewBox="0 0 351.38 498.83"><defs><style>.cls-1{fill:#0080ff;}</style></defs><title>Asset 1</title><g id="Layer_2" data-name="Layer 2"><g id="Layer_1-2" data-name="Layer 1"><path class="cls-1" d="M.26,336.62c0-22.09.72-44.21-.2-66.26-1-24,9.53-41.46,27.65-55.44,20.44-15.77,44-24.84,68.81-30.67,56-13.16,112-12.7,167.63,2.47,21.58,5.89,42,14.52,59.81,28.44,13.65,10.7,24.17,23.58,26.66,41.49a66.07,66.07,0,0,1,.48,9.23c0,45.79-.57,91.6.26,137.38C351.8,427,342,444.47,324,458.41c-20.38,15.85-43.91,25-68.74,30.82-60.71,14.19-121,13.09-180.59-6.3-20.2-6.58-39-16-54.67-30.84C6.82,439.52-.32,424.52.13,405.8.68,382.75.26,359.68.26,336.62Zm19.49,38.82c0,9.9.38,20.3-.1,30.67C19.07,418.59,24,428.46,32.52,437c10.79,10.73,23.86,17.85,37.76,23.53,27.64,11.28,56.61,16.42,86.28,18,38.93,2.1,77.2-1.42,114.27-14.12,17.92-6.14,34.88-14.21,48.5-27.92,8.26-8.31,12.95-18,12.38-30.09-.42-8.92-.08-17.86-.08-26.8V375.2c-9.8,6.86-18.94,14.21-28.95,20.07-26.16,15.3-54.88,23-84.78,26.74-7,.88-12-2.1-12.89-7.88s2.93-9.94,9.88-11.35c14.76-3,29.71-5.42,44.13-9.62,21.54-6.27,41.4-16.19,57.57-32.28,10.09-10,16.3-21.69,15.11-36.51-.43-5.33-.05-10.72-.09-16.08,0-1.15-.24-2.29-.43-4-17.15,15.45-36.74,25-57.83,31.62C214.74,354.16,155.49,355.08,96,341.05,68.41,334.56,42.52,324,20.84,305c-.14-.12-.57.1-1,.19,0,9.38-.61,18.83.15,28.17,1,12.92,9,22.35,18.1,30.71C50,374.94,63.94,382.48,78.77,388.48c18.93,7.67,38.7,11.9,58.88,14.55,5.86.77,9.45,5.49,8.75,10.84a9.89,9.89,0,0,1-11.24,8.4c-29.22-3.59-57.48-10.7-83.28-25.23C40.69,390.74,30.47,382.72,19.75,375.44ZM173.51,331c32.24-.2,62.15-3.51,91.18-12.74,20.09-6.39,39.33-14.58,54.53-29.87,16.49-16.59,16.42-34.68.06-51.32-10.79-11-24-18.16-38.06-23.93-27.63-11.34-56.6-16.4-86.28-18-37.93-2.1-75.25,1.26-111.5,13.14-18.77,6.15-36.67,14.2-50.94,28.46-17,17-16.95,35-.07,52,9.41,9.49,20.72,16.14,32.81,21.46C100.34,325.63,137.45,330.59,173.51,331Z"></path><path class="cls-1" d="M254.47,45.72a48.08,48.08,0,0,1-6.86-3.5c-22.11-15.29-46.46-23.46-73.45-23.11-24.31.3-46.56,7.41-66.83,20.81-2,1.34-4,2.78-6.08,4-5.11,3-10.78,1.92-13.76-2.59s-1.8-10.13,3.08-13.63c16.8-12,35.06-21.26,55.45-24.91,41.39-7.41,80-.5,114.51,24.67,4,2.89,5.9,6.56,4.48,11.33C263.73,43.13,260.55,45.43,254.47,45.72Z"></path><path class="cls-1" d="M178.67,38.6c18.28.22,37.52,6.19,55,17.82,5.78,3.85,7.39,9.63,4.15,14.52-3.12,4.72-8.86,5.52-14.55,2q-47.62-29.93-95.18,0c-5.65,3.56-11.44,2.71-14.55-2s-1.63-10.39,3.83-14.2C133.85,45.19,155.37,38.54,178.67,38.6Z"></path><path class="cls-1" d="M175.87,77.54A64.41,64.41,0,0,1,207.36,86c5.79,3.33,7.64,8.8,4.79,13.84-2.77,4.88-8.27,6.33-13.89,3.3-15-8.08-29.95-8.16-45-.08-5.82,3.12-11.53,1.61-14.21-3.48s-.81-10.19,4.79-13.46A64.11,64.11,0,0,1,175.87,77.54Z"></path><path class="cls-1" d="M185.39,126.38a9.71,9.71,0,1,1-9.4-9.79A9.8,9.8,0,0,1,185.39,126.38Z"></path><path class="cls-1" d="M175.84,405.07a9.71,9.71,0,1,1-9.86,9.31A9.86,9.86,0,0,1,175.84,405.07Z"></path><path class="cls-1" d="M166,262.75c0-12.32,0-24.64,0-37,0-7.16,3.62-11.59,9.48-11.74,6-.15,10,4.44,10,11.74q0,37,0,73.92c0,7.32-4,11.88-10,11.72-5.87-.15-9.47-4.55-9.48-11.72C165.93,287.39,166,275.07,166,262.75Z"></path><path class="cls-1" d="M117.22,262.27c0-6.15-.09-12.3,0-18.45.11-6,4-10.13,9.45-10.27s9.9,4.12,10,10.24q.19,18.95,0,37.89c-.06,6.16-4.36,10.4-9.94,10.26-5.4-.13-9.36-4.28-9.47-10.24C117.13,275.23,117.23,268.75,117.22,262.27Z"></path><path class="cls-1" d="M234.17,262.93c0,6.15.08,12.31,0,18.46s-4.11,10.52-9.67,10.55-9.71-4.22-9.76-10.43q-.14-18.7,0-37.4c0-6.26,4.07-10.53,9.64-10.57s9.67,4.25,9.79,10.45S234.16,256.62,234.17,262.93Z"></path></g></g></svg>