<svg xmlns="http://www.w3.org/2000/svg" viewBox="0 0 436.6 436.23"><defs><style>.cls-1{fill:#0080ff;}</style></defs><title>Asset 9</title><g id="Layer_2" data-name="Layer 2"><g id="Layer_1-2" data-name="Layer 1"><path class="cls-1" d="M72.67,54c8.94,0,17.87-.08,26.8,0,25.72.28,40.2,11.93,42,37.4,1.65,22.82,5.66,45,11,67.09,2.69,11.23,0,21.87-7.2,31.22q-13.44,17.33-26.53,34.91a9.33,9.33,0,0,0-1.52,5.6c.18,4.3-1.34,7.41-5.43,8.72s-7.32-.48-9.35-4.17C99.2,228.89,100,223.3,104,218c8.89-11.6,17.47-23.46,26.72-34.77,6.32-7.72,8.62-16.06,5.81-25.4-6.59-21.91-9.2-44.35-10.72-67.1-.9-13.55-7.76-19.23-21.45-20.87a73.26,73.26,0,0,0-9.24-.6q-25.81.15-51.64.5a53.19,53.19,0,0,0-7.74.81c-13.86,2.19-19.51,8.57-20,22.46a265.38,265.38,0,0,0,12.08,90.32c23,73,66.77,131.07,127.92,176.33,37,27.38,77.94,46.43,123.24,55.57a249,249,0,0,0,70.75,4.45c7.55-.64,13.09-4.94,14.74-12.19s2.13-15,2.4-22.62c.47-12.66.55-25.33.41-38a98.9,98.9,0,0,0-1.63-18.85c-2.31-11.33-8.21-16.34-19.72-17.49-10.49-1-21.12-1-31.5-2.7-13.11-2.11-26.05-5.31-39-8.32-7.41-1.72-13.72,0-19.61,4.53-11.82,9.13-23.86,18-35.54,27.3-6.88,5.48-13.41,5.82-21.05,1.57-29.51-16.41-54.76-37.72-75.19-64.62-1.55-2-3.16-5.26-2.59-7.36.67-2.49,3.4-5.74,5.69-6.15,2.54-.45,6.33,1.21,8.27,3.22,9.48,9.79,18.11,20.41,27.81,29.95,12.34,12.11,26.68,21.68,41.68,30.27,2.84,1.63,4.71,1.46,7.28-.54,10.62-8.3,21.64-16.1,32.12-24.56,11.21-9,23.33-11.77,37.36-8.36,13.85,3.36,27.86,6.2,41.91,8.6,7,1.19,14.28.49,21.35,1.33,23.64,2.81,34.88,12.39,36.59,36a457.18,457.18,0,0,1-.34,71c-2.05,24.28-15.68,34.23-39.95,34.52C250.94,437.27,175,402.89,110.17,342c-45.21-42.45-78-93.14-96.72-152.55A287.09,287.09,0,0,1,.07,96.36c.59-27.19,13.2-40.69,40.45-42,10.69-.53,21.43-.09,32.15-.09Z"></path><path class="cls-1" d="M436.58,160Q435.23,235,376.33,281.6c-4.6,3.64-9,3.49-12.07-.19s-2.12-8.48,2.56-12.16c29.66-23.36,47.85-53.44,52.93-91,9.85-72.87-39-151.44-121.55-161.17-52.91-6.24-96.64,11.57-130.46,53-2.79,3.42-5.83,5.79-10.42,4.12-5.19-1.88-6.4-7.88-2.58-12.88a156.72,156.72,0,0,1,38.33-35.67C250.56-12.4,329-7.81,381,37.39c33.28,28.92,51,66.08,55,109.92.25,2.75.43,5.5.57,8.26C436.64,157,436.58,158.49,436.58,160Z"></path><path class="cls-1" d="M309.16,187.6c0,8.08,0,15.67,0,23.25,0,13.25-7.57,20.78-20.82,20.82-6.66,0-13.32.09-20,0-10.86-.18-18.63-7.88-18.84-18.78-.16-8.23,0-16.47,0-25.26H227.66c-15.39,0-22.52-7.2-22.54-22.73,0-5.52-.05-11,0-16.56.15-12.92,7.7-20.44,20.71-20.6,6.49-.07,13-.14,19.48,0,3.12.08,4.31-.87,4.21-4.13-.22-7-.16-14,0-20.95.2-11.13,7.92-18.92,19.06-19.16q10.71-.22,21.42,0c11.31.24,19,8.21,19.16,19.62.08,7.63.06,15.26.09,22.89a10.05,10.05,0,0,0,.51,1.68c5.68,0,11.6,0,17.53,0a87.45,87.45,0,0,1,9.72.33,18,18,0,0,1,16.15,17.28c.32,7.62.25,15.26.11,22.89-.21,11.46-7.93,19.16-19.38,19.35C325.8,187.71,317.72,187.6,309.16,187.6ZM293.56,119c0-4.71-.16-9.42.05-14.12.19-4.12-1.33-6-5.61-5.86-5.83.19-11.69.17-17.52,0-4-.11-5.53,1.51-5.46,5.49.16,9.57.09,19.15,0,28.73,0,7.34-2.65,10-10,10-9.25.07-18.51,0-27.76,0-5.84,0-6.53.69-6.57,6.33,0,5.36.16,10.72-.06,16.07-.19,4.55,1.48,6.48,6.21,6.36,9.41-.24,18.83-.1,28.24-.06,7.28,0,9.89,2.66,9.94,10,.05,9.25,0,18.51,0,27.76,0,5.94.33,6.23,6.43,6.24q7.8,0,15.58,0c6.07,0,6.45-.37,6.46-6.27,0-9.42,0-18.83,0-28.25,0-6.75,2.73-9.49,9.41-9.53,9.73-.05,19.47-.1,29.21,0,3.9,0,5.67-1.4,5.54-5.43-.17-5.35,0-10.71,0-16.07,0-6.92-.29-7.22-7-7.24-8.76,0-17.53,0-26.29,0-8.37,0-10.78-2.43-10.81-10.64C293.55,128.11,293.56,123.57,293.56,119Z"></path></g></g></svg>