<svg xmlns="http://www.w3.org/2000/svg" viewBox="0 0 499.13 499.07"><defs><style>.cls-1{fill:#0080ff;}</style></defs><title>Asset 6</title><g id="Layer_2" data-name="Layer 2"><g id="Layer_1-2" data-name="Layer 1"><path class="cls-1" d="M322.61,0c6.95,1.47,14.08,2.34,20.8,4.5C393,20.46,422,55,430.54,105.62c7.26,43.09-5,82.61-27.88,119.09a292,292,0,0,1-18,24.83c-2.49,3.18-2.75,5.25-.5,8.73q53.07,82.49,105.89,165.14c11,17.1,12.29,34.67,2.14,52.41-8.57,15-22,23.05-39.22,23.09q-136.89.31-273.78,0c-17.61,0-31.22-8.38-39.78-23.8-9-16.19-8.89-32.83.85-48.61,14-22.79,28.74-45.18,43.15-67.74,1-1.49,1.86-3,3.1-5-2.72-1.4-5.24-2.74-7.79-4C139,329.93,101.94,306.27,70.19,274.93S14.61,207.34,4.4,163.25C2.51,155.07,1.45,146.69,0,138.4V115c.64-3.65,1.2-7.32,1.93-11,9.45-47.55,36-81,81.87-97.88C92.19,3.08,101.34,2,110.14,0H130.6a17.39,17.39,0,0,0,2.74.8c33.08,4,59.84,19.19,80.48,45.28.74.94,1.64,1.76,2.6,2.78.88-1.09,1.49-1.82,2.08-2.58,15-19.27,33.91-33,57.18-40.32,8.6-2.7,17.63-4,26.46-6Zm49.21,238.68a20.59,20.59,0,0,0,1.87-1.78c17.42-21.81,30.85-45.73,37.49-73,7.81-32.11,6.81-63.43-9.65-93.07C370.65,15.18,301.55-.25,251,37.25a102.47,102.47,0,0,0-26.54,29.51c-4.67,7.66-11.67,7.6-16.5,0-.62-1-1.17-2-1.78-2.91C183.55,28,139.1,9.54,98.58,19.17c-47,11.15-81.1,54.16-81.88,103.68-.61,39,13,73.41,35,104.86,23,32.84,52.76,58.55,86.41,79.77,18.46,11.63,37.8,21.88,56.94,32.87,1.73-2.56,2.76-4,3.7-5.46q38.72-60.49,77.43-121c19.55-30.37,60.09-30.3,79.77,0C361.23,222.09,366.45,230.31,371.82,238.68ZM316.29,482.42q67,0,134,0c12.41,0,22.12-4.86,28.11-15.88s5.33-22.14-1.46-32.75Q409.5,328.4,342,223.07a35.94,35.94,0,0,0-8.83-9.56c-14.54-10.52-33.07-6-43.54,10.3Q222.76,328.15,156,432.5c-7,10.88-8.52,22.07-2.47,33.61,6.22,11.85,16.63,16.42,29.79,16.37C227.61,482.32,272,482.42,316.29,482.42Z"></path><path class="cls-1" d="M258.07,129.92c-11.9,29.71-23.34,58.31-34.79,86.9-.72,1.81-1.39,3.64-2.14,5.43-2.7,6.42-7.23,9.74-13.21,9.71s-10.52-3.32-13.05-9.87c-6.57-16.93-13-33.9-19.56-50.84-3.42-8.88-6.88-17.74-10.67-27.51-5.23,8.72-10.1,16.51-14.61,24.5-2.62,4.64-6.13,6.59-11.47,6.43-9.58-.29-19.17,0-28.75-.1-6.21,0-9.94-3.15-10-8.19s3.75-8.34,9.86-8.39c7.47-.07,15-.18,22.41,0,3.3.1,5.28-.83,7-3.81,4.37-7.78,9.19-15.3,13.69-23,3-5.22,7.29-8.33,13.45-7.89,6.38.46,10.15,4.29,12.38,10.13q13.44,35.22,27.07,70.37c.68,1.78,1.43,3.54,2.46,6.08,6.5-16.23,12.72-31.72,18.92-47.2,5.84-14.6,11.77-29.18,17.48-43.83,2.41-6.18,6.37-10.34,13.18-10.47s11,3.75,13.55,9.92c4.92,11.83,10.26,23.49,15.05,35.36,1.42,3.5,3.27,4.41,6.84,4.36,15.43-.19,30.86-.11,46.29-.06,5.4,0,8.7,2.36,9.55,6.5,1.16,5.66-2.5,10-8.78,10.06-16.24.09-32.53-.68-48.71.28-10.91.65-16.68-3-20.07-13.35S262.93,141.21,258.07,129.92Z"></path><path class="cls-1" d="M291.23,324.12c0-16.87-.19-33.75.07-50.63.19-12,8.76-21.47,20.63-23.66a24.57,24.57,0,0,1,26.68,14.3A30.2,30.2,0,0,1,341,275.42q.27,48.93.08,97.85c0,14.9-11.1,26.14-25.21,26s-24.51-11.12-24.61-25.94c-.11-16.39,0-32.78,0-49.17Zm16.59-.1c0,1,0,2,0,2.92,0,15.57-.08,31.14.05,46.71.05,6.73,5.84,10.71,11.54,8.14,3.91-1.76,5-5.17,5-9.19,0-13.79,0-27.57,0-41.35q0-27.5,0-55c0-5.6-2.39-9-6.71-9.95-5.28-1.17-9.83,2.86-9.86,9.06C307.77,291.59,307.82,307.81,307.82,324Z"></path><path class="cls-1" d="M291.24,440.83a24.89,24.89,0,0,1,49.78-.06,25.19,25.19,0,0,1-25.18,25A24.86,24.86,0,0,1,291.24,440.83Zm24.85,8.31a8.6,8.6,0,0,0,8.29-8.49,8.32,8.32,0,0,0-8.61-8,8,8,0,0,0-7.91,8.11A8.3,8.3,0,0,0,316.09,449.14Z"></path></g></g></svg>