<svg xmlns="http://www.w3.org/2000/svg" viewBox="0 0 498.75 427.54"><defs><style>.cls-1{fill:#0080ff;}</style></defs><title>Asset 2</title><g id="Layer_2" data-name="Layer 2"><g id="Layer_1-2" data-name="Layer 1"><path class="cls-1" d="M498.75,152.6c-1.57,8.57-2.36,17.38-4.91,25.66-4.13,13.44-9.3,26.56-14.26,39.74-2.33,6.2-7.26,8.69-13.82,8.67-25-.07-50,0-75-.1-3.28,0-5.29.93-7.12,3.69-5.48,8.24-11.23,16.31-17,24.38-7.06,9.94-17.84,9.18-23.56-1.66-7-13.35-14-26.74-21-40.1-.74-1.42-1.58-2.78-2.76-4.86-1.11,2.16-2,3.77-2.77,5.43q-19,40.53-37.88,81.11c-2.11,4.53-4.89,8.09-10,9.06-7.2,1.37-13.16-2.7-14.93-10.55-4.86-21.52-9.53-43.08-14.27-64.62-3.72-16.92-7.44-33.83-11.48-52.23-1.42,2.75-2.28,4.32-3,5.93q-16.59,35.47-33.14,71c-2.33,5-6.06,8.16-11.58,8.33s-9.57-2.61-12-7.59c-.58-1.17-1.22-2.3-1.82-3.45q-11.07-21.12-22.15-42.24c-.74-1.41-1.54-2.79-2.59-4.69-3.82,5.45-7.52,10.35-10.82,15.51-3.49,5.46-8.19,7.77-14.67,7.71-20.78-.18-41.56-.07-63.38-.07,1.94,3,3.44,5.33,5,7.64,29.19,42,65.25,77.37,105.18,109a656.05,656.05,0,0,0,82.67,55.8c2.57,1.46,4.46,1.57,7.05.07,64.39-37.45,122.33-82.67,169.93-140.46a21.3,21.3,0,0,1,9.26-6.44c5-1.65,10.27,1.16,12.94,5.52a12,12,0,0,1-1,14.55c-7.44,9-14.88,18.06-22.85,26.6-47.35,50.8-102,92.19-162.58,126-6.34,3.54-11.89,3.58-18.25,0C164.5,382.3,97.54,329.38,45,259.57c-9-12-16.69-25.12-24.28-38.13-6.17-10.58-.13-20.08,12.11-20.1,24.85,0,49.7-.1,74.55.1,3.75,0,5.84-1.18,7.84-4.2,5.37-8.12,11-16,16.68-24,6.92-9.75,17.7-9.14,23.28,1.37,7.16,13.47,14.16,27,21.24,40.52.74,1.41,1.58,2.76,2.73,4.77,1.11-2.14,2-3.75,2.78-5.41q19-40.55,37.88-81.12c2.17-4.69,5-8.36,10.45-9.13,7.49-1.07,12.93,3.08,14.79,11.46,4.7,21.22,9.3,42.46,14,63.69q5.31,24.24,10.68,48.47c.19.88.55,1.73,1.1,3.39,1.16-2.29,2-3.8,2.71-5.36q16.59-35.49,33.14-71c2.41-5.19,6.2-8.43,12-8.46,5.55,0,9.47,2.9,11.86,7.89.49,1,1.06,2,1.59,3q11.08,21.12,22.15,42.24c.75,1.42,1.54,2.81,2.67,4.86,3.82-5.46,7.5-10.33,10.77-15.48,3.47-5.47,8.12-7.78,14.63-7.72,24.36.19,48.73.12,73.09,0,1.74,0,4.51-.93,5.05-2.17,14.57-34.12,18.65-68.84,4.16-104-29.07-70.58-116.52-92.35-174-43.31-10.48,8.95-20.08,18.95-30.12,28.42-8.18,7.71-14.18,7.73-22.31,0s-16.46-15.69-24.69-23.53C156.1,2,64,21.61,34,94.92c-8.65,21.11-10.8,42.94-7.34,65.45a25.86,25.86,0,0,1-.09,9.61c-1.24,5.27-6.82,8.89-12.16,8.7-5.7-.2-11.07-4-11.72-9.83C1.29,156.47-.58,143.91.17,131.56,2.75,89.1,21,54.23,54.57,28c52.11-40.64,127.16-36.57,175,9.05C236,43.2,242.41,49.41,249.23,56c5.29-5.07,10.41-9.75,15.29-14.67C281.67,24,301.69,11.61,325.28,5.13,391.61-13.08,460,19.93,487.06,83.24A138.73,138.73,0,0,1,497.91,125a21.22,21.22,0,0,0,.84,3.27Z"></path></g></g></svg>