<svg xmlns="http://www.w3.org/2000/svg" viewBox="0 0 498.61 467.23"><defs><style>.cls-1{fill:#0080ff;}</style></defs><title>Asset 4</title><g id="Layer_2" data-name="Layer 2"><g id="Layer_1-2" data-name="Layer 1"><path class="cls-1" d="M0,210.12c1.29-9.29,2.1-18.67,4-27.85Q29.66,54.72,148.47,1.47C153.13-.62,157.68-.78,161.53,3s3.74,8.33,1.62,13a220.84,220.84,0,0,0-18.1,62.86c-6.21,48,1.77,93.62,25.42,135.86,35,62.55,88.59,99.73,159,112,38.52,6.72,76.33,2.33,113-11.47l5.45-2.08c4.64-1.78,9.06-1.57,12.54,2.26s3.25,8.22,1.11,12.71a236.8,236.8,0,0,1-30.43,48.55c-37.51,45.84-85.27,75.09-143.48,86-69.9,13.05-134-2.07-190.92-44.48-49.9-37.14-80-87.27-92.35-148.1-1.74-8.56-2.34-17.35-3.5-26-.21-1.59-.58-3.15-.87-4.73ZM133.79,32.17C59,73,8.44,161.6,23.7,259.21c15.36,98.21,92,172.56,191.58,185.4,94.07,12.13,176.81-38.68,214.46-102.68-92.27,21.29-174.11,2-240-67S108.33,123.21,133.79,32.17Z"></path><path class="cls-1" d="M464.67,83.61c-10.9,0-20.57.06-30.24,0-3.72,0-7.58.1-11.09-.87-2.21-.61-5.39-3-5.48-4.79-.14-2.77,1.37-6.15,3.27-8.33,1.29-1.48,4.43-1.86,6.75-1.87,17.69-.12,35.39,0,53.08,0a10.13,10.13,0,0,1,1.46.07c4.33.61,9,.78,11,5.69s-.2,8.93-3.33,12.45c-13.9,15.66-27.9,31.24-41.85,46.86-1,1.16-2,2.39-3.45,4.14,2.27.1,3.82.22,5.36.23,11.86,0,23.71-.11,35.56.09,3,0,6.51.28,8.81,1.87s4.23,4.93,4.09,7.38-2.76,5.1-5,6.85c-1.43,1.14-4,1.08-6.09,1.09q-29.46.1-58.93,0a27.57,27.57,0,0,1-4.36-.35c-9.54-1.55-12.72-9.77-6.48-17.12,5.36-6.31,11-12.39,16.5-18.57,8-9,16-17.89,24-26.88C460.28,89.3,462.06,86.87,464.67,83.61Z"></path><path class="cls-1" d="M263.61,89.43c-11.29,0-21.15,0-31,0a92.26,92.26,0,0,1-9.7-.51c-3.67-.41-6.52-1.83-6.62-6.27s1.85-7.16,5.83-8.5a15.1,15.1,0,0,1,4.79-.63q26.06,0,52.11.07a22.71,22.71,0,0,1,5.75.72c7.42,2,9.68,7.27,6,14.07a30.43,30.43,0,0,1-4.07,5.43q-19.6,22-39.29,43.91c-1.17,1.3-2.32,2.62-4,4.56,2.19.16,3.56.35,4.93.35,11.68,0,23.37,0,35.06,0a45.89,45.89,0,0,1,6.32.28c4.7.66,7.71,4.11,7.67,8.54s-2.62,7.28-7.47,8.14a36.73,36.73,0,0,1-6.29.51q-27.27.06-54.55,0a42.91,42.91,0,0,1-6.3-.49c-9.21-1.36-12.41-9.51-6.52-16.78,3-3.66,6.18-7.11,9.34-10.6,10-11.07,20.11-22.09,30.11-33.18C258.13,96.31,260.38,93.35,263.61,89.43Z"></path><path class="cls-1" d="M345.52,196.36c11.56,0,21.75,0,31.93,0a27.55,27.55,0,0,1,5.83.28c3.48.79,5.74,2.89,5.75,6.78,0,3.74-2.31,5.5-5.53,6.43a8.88,8.88,0,0,1-2.42.23q-24.6,0-49.2,0c-3.75,0-7.25-1-8.82-4.82s.1-6.84,2.63-9.71q15.29-17.37,30.43-34.87c1.77-2,3.41-4.2,5.81-7.16-8.23,0-15.45,0-22.67,0-3.23,0-6.47-.26-9.69-.5s-5.74-1.88-5-5.16c.58-2.45,2.63-4.72,4.5-6.6.8-.81,2.79-.58,4.23-.58,13.65,0,27.29,0,40.93.06,4,0,8.61,0,10.5,4.45s-.65,8.1-3.6,11.37q-14.66,16.31-29.27,32.64Z"></path></g></g></svg>