<svg xmlns="http://www.w3.org/2000/svg" viewBox="0 0 495.16 499.05"><defs><style>.cls-1{fill:#0080ff;}</style></defs><title>Asset 8</title><g id="Layer_2" data-name="Layer 2"><g id="Layer_1-2" data-name="Layer 1"><path class="cls-1" d="M62.22,0c3.56,2.73,7.46,5.1,10.61,8.23q58,57.75,115.83,115.69c6.91,6.9,10.69,14.92,7.94,24.6-1.18,4.17-3.81,8.17-6.59,11.6-3.23,4-7.35,7.22-11.1,10.81l11.67,11.77c10.73-10.75,21.22-21.6,32.15-32a35.56,35.56,0,0,1,12.46-8c9.93-3.36,18.36.33,25.56,7.55q37.5,37.61,75.1,75.11c4.71,4.71,9.5,9.34,14.11,14.14,10.54,11,10.38,25.16-.35,35.93-11,11-22,22-33.22,33.19L328.27,320c5-5.17,10.17-10.53,15.41-15.78,8.86-8.89,16.33-8.93,25.09-.16q58.58,58.56,117.14,117.13c12.34,12.36,12.33,26.06,0,38.36-10.22,10.23-20.4,20.48-30.67,30.66-11.87,11.75-25.9,11.75-37.74-.08Q362,434.75,306.61,379.23c-12.06-12.09-12-25.94.15-38,3.08-3.08,6.18-6.13,9.31-9.23l-11.49-11.42c-11,11-22,22.07-33.06,33-8.92,8.78-20.29,10.6-30.22,4.76a39.27,39.27,0,0,1-7.51-6.13C221.34,339.83,209,327.39,195.57,314c-3.64,4-7.31,7.85-10.61,12-.73.91-.46,3-.08,4.36,3.87,14.42-4.48,28.31-18.77,31-13.77,2.61-26.45-6.94-28.36-21.39-2.18-16.5,13.78-30.11,30.26-25.45,3.43,1,5.31.26,7.48-2.12,2.81-3.09,5.94-5.89,9.62-9.48-4.68-4.41-9-8.31-13.11-12.4-8.9-8.79-17.77-17.6-26.52-26.54-10.9-11.12-10.79-25.27.14-36.25q14.79-14.83,29.62-29.63c1.13-1.14,2.21-2.32,3.32-3.5l-11.68-11.18c-3.17,3.21-6.5,6.71-10,10.08-11,10.63-25.18,10.85-36,.09q-56.64-56.36-113-113c-10.75-10.8-10.44-25.11.3-35.9C20.35,32.45,32.44,20.19,44.75,8.16,47.92,5.05,51.83,2.7,55.4,0Zm191.2,343.14c2.56-1.65,5-2.69,6.72-4.41q38.67-38.48,77.16-77.11c4.86-4.88,4.85-8.93-.08-13.87q-44.21-44.31-88.5-88.49c-4.76-4.74-8.84-4.78-13.54-.1q-38.82,38.66-77.48,77.48c-4.59,4.61-4.53,8.9.1,13.53q44.35,44.47,88.87,88.81C248.39,340.69,250.89,341.61,253.42,343.14Zm224.79,93.27c-1.85-2.67-3.17-5.3-5.14-7.28q-54.82-55-109.8-109.9c-5.69-5.69-9.6-5.68-15.32,0q-14.67,14.6-29.26,29.28c-7,7-7.05,10.07-.1,17l72,72q18.76,18.76,37.55,37.51c5,5,9.09,5.07,13.91.32q16.11-15.9,32-32.05C475.72,441.57,476.64,439,478.21,436.41ZM182.45,140.93c-1.69-2.63-2.79-5.22-4.63-7.06Q122.49,78.33,67,23c-4.94-4.93-9-5-13.92-.15Q37.13,38.53,21.39,54.49c-4.73,4.79-4.72,9.1.08,13.92Q77,124.06,132.69,179.62c4.75,4.74,8.85,4.76,13.52.14q16.13-15.9,32-32C179.92,146,180.89,143.49,182.45,140.93ZM162.94,326.5a7.86,7.86,0,0,0-1.29,15.66,8,8,0,0,0,8.6-7.42A8.15,8.15,0,0,0,162.94,326.5Z"></path><path class="cls-1" d="M160.09,455c-52.6-1.71-96.24-33.88-112.35-83.94-3.57-11.1-4.34-23.16-5.83-34.85-.73-5.7,2.55-9.32,7.23-9.66s8.27,2.69,8.58,8.45c.69,12.88,2.34,25.53,7.39,37.49C80.6,409.08,107.89,431,147.2,437.6c4.62.78,9.36.75,14,1.19,5.95.56,9.43,4,9,8.72S166,455.14,160.09,455Z"></path><path class="cls-1" d="M157.76,422.61c-42-3.14-74.4-31.34-82.27-71.8A100.08,100.08,0,0,1,74,335.34c-.19-5.33,3-8.71,7.62-8.87,4.48-.15,7.77,2.68,8.13,7.83.75,10.94,2.4,21.62,7.48,31.48q19.47,37.75,61.88,40.72c1,.07,1.95,0,2.91.17,5.18.71,8.54,4.19,8.27,8.5-.3,4.65-4.07,7.66-9.59,7.61C159.7,422.77,158.73,422.67,157.76,422.61Z"></path><path class="cls-1" d="M159.78,393.71C131.49,393,107,368.55,106.14,340.3c-.19-6.44,2.43-10.25,7.35-10.7,4.76-.44,8.32,2.93,8.76,9.47.82,12.17,5.64,22.14,15.13,29.78a36.64,36.64,0,0,0,20.81,8.42c1,.07,1.93.17,2.9.31,6.23.91,9.47,3.93,9.2,8.57C170,391.11,166.16,393.87,159.78,393.71Z"></path><path class="cls-1" d="M241.83,232.74,264,254.94l-10.43,10.13L231.35,243Z"></path><path class="cls-1" d="M271,261.27l10.12,10.23-11.08,10.91c-3.15-3.39-6.6-7.13-9.93-10.72Z"></path><path class="cls-1" d="M224.61,236.4l-10.46-10.28L225.08,216l9.57,10.59Z"></path></g></g></svg>