<svg xmlns="http://www.w3.org/2000/svg" viewBox="0 0 400.17 335.26"><defs><style>.cls-1{fill:#0080ff;}</style></defs><title>Asset 3</title><g id="Layer_2" data-name="Layer 2"><g id="Layer_1-2" data-name="Layer 1"><path class="cls-1" d="M148.92,115.73q-5,43.28-10.07,86.56Q132.71,255,126.57,307.74c-.64,5.48-1.11,11-1.94,16.44-1,6.74-5.2,10.75-11,11.06s-10.42-3.28-12.16-9.82q-12.08-45.37-24-90.79c-2.9-11-6-21.9-8.59-32.95-.86-3.66-2.51-4.48-6-4.44q-25.1.22-50.2,0C5.12,197.21.22,192.69,0,186a11.13,11.13,0,0,1,10-11.76,126.27,126.27,0,0,1,13.63-.34q25.1-.06,50.2,0c9.46,0,12.84,2.67,15.21,11.69q9.17,34.81,18.34,69.62a3.49,3.49,0,0,0,1.63,2.33c.82-6.62,1.68-13.23,2.45-19.86q6.72-57.57,13.4-115.13,6.44-55.38,12.89-110.77c.86-7.36,5.36-11.8,11.8-11.8s10.91,4.36,11.81,11.78q9.3,76.86,18.56,153.74c1.47,12.22,3,24.43,5.46,36.81,3.65-9.11,7.23-18.25,11-27.31,3-7.22,9.78-10.06,16.18-7,4.42,2.11,6.06,6,7,10.5q6.44,31,12.94,61.93a91.07,91.07,0,0,0,4.13,15.07c.77-3.56,1.6-7.1,2.32-10.67l36.48-181.3c.22-1.11.49-2.22.77-3.32,1.52-5.89,5.9-9.59,11.32-9.56,5.23,0,9.7,3.5,11.18,9.17,3,11.46,5.83,22.95,8.69,34.44q8.46,34,16.88,68c.35,1.39.82,2.75,1.35,4.5h19c13.32,0,26.64,0,40,0a30.51,30.51,0,0,1,5.32.38c6.75,1.23,10.78,6.28,10.22,12.64-.53,6.1-5.22,10.37-11.95,10.43-13.32.13-26.64.05-40,.05-10.39,0-20.79.06-31.19,0-7.12-.06-10.8-2.87-12.57-9.79-4.89-19.17-9.65-38.38-14.47-57.57a15,15,0,0,0-2.05-5c-1.88,9.18-3.79,18.36-5.63,27.54q-17.16,85.9-34.31,171.8c-1.36,6.84-5.85,10.92-11.79,10.88s-10.17-3.94-11.66-11q-9.74-45.94-19.4-91.9c-.34-1.58-.73-3.16-1.38-6-1.22,2.93-2.06,4.85-2.84,6.79-3.76,9.33-7.47,18.67-11.28,28-2.57,6.29-6.95,9.24-12.57,8.62-5.87-.64-9.76-4.59-10.61-11.5q-5.62-45.68-11-91.37-2.57-21.27-5.1-42.55a8,8,0,0,0-.6-1.65Z"></path></g></g></svg>