<svg xmlns="http://www.w3.org/2000/svg" viewBox="0 0 343.07 499.14"><defs><style>.cls-1{fill:#0080ff;}</style></defs><title>Asset 5</title><g id="Layer_2" data-name="Layer 2"><g id="Layer_1-2" data-name="Layer 1"><path class="cls-1" d="M228.08,0a15.35,15.35,0,0,0,2.19.91c14.95,3.76,24.36,13.2,28,28.07,4.11,17,7.86,34.15,11.55,51.28.58,2.71,1.71,3.68,4.29,4.24,23.28,5,37,21.81,37.24,45.61.13,11.67,0,23.35,0,35.86,2.39,0,4.41,0,6.43,0,15.57.24,25.22,9.9,25.27,25.39q.08,19.48,0,39c0,15.88-9.63,25.56-25.4,25.7-1.91,0-3.83,0-6.31,0v6.28q0,52.14,0,104.3c0,26.1-12.44,41.83-37.78,48.28-1.48.37-3.21,2.47-3.59,4.06-4,16.89-7.7,33.85-11.63,50.76-4.17,18-18.36,29.33-36.85,29.35q-65.81.11-131.62,0c-18.12,0-32.07-11-36.49-28.53-2-7.87-3.72-15.79-5.46-23.72-1.28-5.86.74-9.77,5.35-10.75,4.27-.92,7.69,1.91,9,7.49,1.67,7.27,3.28,14.56,4.92,21.84,2.81,12.41,10.88,19.05,23.44,19.06q65.31,0,130.64,0c11.67,0,20-6.28,22.67-17.5,4-16.56,7.57-33.21,11.31-49.83a7.75,7.75,0,0,0-.11-1.79h-5.82q-101.4,0-202.8,0c-22.29,0-40-13.56-45-34.39A53.91,53.91,0,0,1,.07,368.4Q0,249.47,0,130.54c0-23.81,14.09-41.16,37.41-46,3.08-.64,3.8-2.23,4.36-4.77,3.47-15.68,7.3-31.29,10.49-47,3.43-17,12.75-28,29.84-32.1.26-.07.45-.43.67-.65ZM296.7,250.05c0-39.79.06-79.58,0-119.37-.05-19.8-12.6-32.28-32.28-32.29q-108.67,0-217.34,0c-19.62,0-32.4,12.73-32.41,32.27q0,118.88,0,237.77c0,19.53,12.8,32.28,32.38,32.29q108.68,0,217.35,0a39.32,39.32,0,0,0,7.75-.55c15.18-3.09,24.52-15.08,24.55-31.71Q296.78,309.25,296.7,250.05ZM255.59,83.57c-4-17.54-7.66-34.48-11.68-51.34-2.69-11.27-11-17.58-22.59-17.59q-65.56-.06-131.13,0c-12,0-20.32,6.79-23,18.46q-5,22.07-9.88,44.16c-.45,2-.78,4-1.22,6.31Zm56,157.32c12,1.94,17.57-1,17-13.77-.53-11.18-.11-22.4-.11-33.6s-5.52-15.16-16.86-12.08Z"></path><path class="cls-1" d="M267.45,230.13H44.11c-.08,1.73-.21,3.3-.21,4.86q0,63.36,0,126.7c0,7.77,2,9.79,9.78,9.79H257.91c7.56,0,9.51-1.92,9.53-9.49,0-14.29,0-28.59,0-42.88a22.34,22.34,0,0,1,.47-5.31c.93-3.65,3.64-5.42,7.24-5.24a6.61,6.61,0,0,1,6.67,5.94,24,24,0,0,1,.22,3.89c0,14.78.07,29.56,0,44.34s-8.67,23.37-23.28,23.37q-103.08,0-206.17,0c-14.54,0-23.33-8.82-23.34-23.4q0-113.05,0-226.11C29.28,121.71,38,113,52.91,113q102.84,0,205.68,0c14.74,0,23.44,8.51,23.46,23.18q.1,70.91,0,141.8c0,.33,0,.65,0,1-.16,5.87-2.7,8.91-7.39,8.83s-7.14-3.17-7.2-9.07c-.09-8,0-15.92,0-23.88Zm0-15.07v-5.45q0-35.82,0-71.64c0-8.8-1.6-10.34-10.64-10.34H54.55c-1.3,0-2.6,0-3.9,0-3.8.21-6.43,2.4-6.54,6-.32,10.17-.12,20.35-.12,31,4.8,0,9.16-.18,13.49.07,2.84.16,4.42-.92,5.83-3.26,2.91-4.88,6-9.64,9.22-14.33,3.89-5.71,9.63-5.69,13.38,0,2.57,3.94,4.92,8,7.36,12.05l10.89,17.94c3.89-9,7.09-17.16,11-25,1.19-2.42,4.12-5.39,6.39-5.51,2.55-.12,5.83,2.17,7.76,4.34a72.48,72.48,0,0,1,7.92,11.66c1.53,2.59,3.43,3.38,6.34,3.33,9.42-.17,18.84-.06,28.26-.06H188a19.56,19.56,0,0,0,.63-2c2.53-14.42,12.74-20.71,26.6-16,4.16,1.42,7.74,1,11.74-.37,9.44-3.2,18.21-.11,22.94,7.63s3.47,17-3.4,24.05Q238,188,229.27,196.49c-5.57,5.37-11.6,5.34-17.19,0-4.33-4.16-8.33-8.7-12.89-12.59a13,13,0,0,0-7.54-3.14c-18-.27-36.06-.22-54.1-.09-4.17,0-7.17-1.32-9.26-5-1.22-2.15-2.78-4.1-4.6-6.75-3.81,8.82-7.27,16.66-10.56,24.57-1.44,3.47-3.1,6.52-7.34,6.82s-6.32-2.49-8.24-5.71c-6-10-12-19.93-18.5-30.57-2.29,3.51-4.38,6.36-6.09,9.41-2.4,4.29-5.77,6.17-10.76,5.92-5.94-.31-11.91-.08-17.89-.08v35.77Zm-46.74-30.34c5.38-5.47,10.55-10.41,15.27-15.75,1.21-1.37,2-4.52,1.2-5.88s-4.15-2-5.7-1.38a26.62,26.62,0,0,1-21.66-.05c-1.48-.63-4.91.08-5.37,1.11a6.63,6.63,0,0,0,.77,5.93C210,174.16,215.3,179.21,220.71,184.72Z"></path><path class="cls-1" d="M96.65,285.49c5.36.33,10.26.13,15,1,17,3.18,28,18.05,26.8,35.8-1.07,16-14.82,29.18-31.56,30.34-15.9,1.1-31.06-10.53-34.47-26.44-1.17-5.47.85-9.49,5.21-10.4,4.58-.95,7.7,1.49,9.09,7.12,2.54,10.25,11.66,16.6,21.32,14.86,10.22-1.84,16.66-10.24,15.81-20.63-.79-9.75-9.3-17.23-19.79-16.72-4.28.2-8.45,2.07-12.74,2.58-2.81.33-6.44.5-8.42-1-1.76-1.32-2.71-5.12-2.38-7.61C82,283.19,84,272,85.84,260.82c1.3-8,3-9.61,11.08-9.63,9.09,0,18.18-.06,27.27,0,5.69,0,9,2.88,9,7.34s-3.46,7.18-9.16,7.24c-6.82.07-13.64.12-20.45,0-2.84-.06-4,.86-4.31,3.77C98.63,274.83,97.56,280.08,96.65,285.49Z"></path><path class="cls-1" d="M205.65,318.86c-7,0-14,.14-21,0a20.5,20.5,0,0,1-20.4-20.52c-.08-11.18,8.2-20.38,19.61-20.71q21.65-.63,43.34,0a20.41,20.41,0,0,1,20,20.92,20.7,20.7,0,0,1-20.67,20.35C219.61,319,212.63,318.87,205.65,318.86Zm0-14.6c6.65,0,13.29,0,19.94,0,4,0,6.54-1.84,7-5.88.36-3.65-2.45-6.27-7-6.3q-19.7-.16-39.38,0c-4.7,0-7.19,2.34-7.17,6.1s2.55,6,7.18,6.07C192.67,304.33,199.15,304.27,205.63,304.26Z"></path><path class="cls-1" d="M190.36,264.21c-6,0-12,.08-18,0-5-.09-8-2.91-8-7.2s3-7.31,7.89-7.35q18-.16,36,0c4.86,0,8.06,3.06,8.1,7.22s-3.15,7.23-8,7.33C202.34,264.3,196.35,264.21,190.36,264.21Z"></path><path class="cls-1" d="M197.86,344.74a8,8,0,0,1,8.21-7.34,7.87,7.87,0,0,1,7.47,8.51,7.86,7.86,0,0,1-15.68-1.17Z"></path><path class="cls-1" d="M171.76,337.4a7.93,7.93,0,0,1,7.62,8.4,7.86,7.86,0,0,1-15.69-.94A7.93,7.93,0,0,1,171.76,337.4Z"></path><path class="cls-1" d="M155.7,48.91c-5.19,0-10.38,0-15.57,0-4.39,0-7-2.28-7.56-6.62a6.85,6.85,0,0,1,6.87-7.8c10.86-.28,21.73-.26,32.59,0A7.13,7.13,0,0,1,179,41.84c-.09,4.07-3.09,6.93-7.71,7C166.08,49,160.89,48.91,155.7,48.91Z"></path></g></g></svg>